<?xml version="1.0" encoding="UTF-8"?>
<svg width="24" height="24" viewBox="0 0 24 24" fill="none" xmlns="http://www.w3.org/2000/svg">
  <g stroke="currentColor" stroke-width="1.8" stroke-linecap="round" stroke-linejoin="round">
    <path d="M12 5.2l1.1 1.8a1 1 0 00.8.4l2-.1-.4 2a1 1 0 00.3.9l1.6 1.1-1.6 1.1a1 1 0 00-.3.9l0.4 2-2-.1a1 1 0 00-.8.4L12 18.8l-1.1-1.8a1 1 0 00-.8-.4l-2 .1.4-2a1 1 0 00-.3-.9L6.6 13l1.6-1.1a1 1 0 00.3-.9l-.4-2 2 .1a1 1 0 00.8-.4L12 5.2z"/>
    <circle cx="12" cy="12" r="2.2"/>
  </g>
</svg>
